<svg width="22" height="23" viewBox="0 0 22 23" fill="none" xmlns="http://www.w3.org/2000/svg">
<path d="M11 22.1957C5.05697 22.1957 0.241821 17.3805 0.241821 11.4375C0.241821 5.49447 5.05697 0.679321 11 0.679321C16.943 0.679321 21.7582 5.49447 21.7582 11.4375C21.7582 17.3805 16.943 22.1957 11 22.1957ZM16.0321 9.52879H11V6.45317C11 5.989 10.4361 5.75475 10.1107 6.08444L5.15241 11.0688C4.94852 11.2727 4.94852 11.598 5.15241 11.8019L10.1107 16.7862C10.4404 17.1159 11 16.8817 11 16.4175V13.3462H16.0321C16.3184 13.3462 16.5526 13.112 16.5526 12.8257V10.0493C16.5526 9.76304 16.3184 9.52879 16.0321 9.52879Z" fill="#0071BC"/>
</svg>
