<svg width="29" height="25" viewBox="0 0 29 25" fill="none" xmlns="http://www.w3.org/2000/svg">
<path d="M25.171 1.57289C24.8569 0.668912 23.9988 0.0253906 22.9953 0.0253906H6.14114C5.13754 0.0253906 4.27952 0.668912 3.96541 1.57289L0.778442 10.7507V23.0082C0.778442 23.8509 1.46793 24.5404 2.31065 24.5404H3.84285C4.69322 24.5404 5.37505 23.8509 5.37505 23.0082V21.476H23.7614V23.0082C23.7614 23.8509 24.4508 24.5404 25.2936 24.5404H26.8258C27.6761 24.5404 28.358 23.8509 28.358 23.0082V10.7507L25.171 1.57289H25.171ZM6.14114 16.8795C4.86943 16.8795 3.84285 15.8529 3.84285 14.5812C3.84285 13.3095 4.86943 12.2829 6.14114 12.2829C7.41284 12.2829 8.43942 13.3095 8.43942 14.5812C8.43942 15.8529 7.41284 16.8795 6.14114 16.8795ZM22.9953 16.8795C21.7236 16.8795 20.697 15.8529 20.697 14.5812C20.697 13.3095 21.7236 12.2829 22.9953 12.2829C24.267 12.2829 25.2936 13.3095 25.2936 14.5812C25.2936 15.8529 24.267 16.8795 22.9953 16.8795ZM3.84285 9.21854L6.14114 2.32368H22.9953L25.2936 9.21854H3.84285Z" fill="#0071BC"/>
</svg>
