<svg width="40" height="27" viewBox="0 0 40 27" fill="none" xmlns="http://www.w3.org/2000/svg">
<path d="M37.3032 0.0229492H2.64795C1.58483 0.0229492 0.722656 0.885119 0.722656 1.94824V25.0518C0.722656 26.1149 1.58483 26.9771 2.64795 26.9771H37.3032C38.3663 26.9771 39.2285 26.1149 39.2285 25.0518V1.94824C39.2285 0.885119 38.3663 0.0229492 37.3032 0.0229492ZM11.3118 17.8247V18.7946C11.3118 19.0605 11.0964 19.2759 10.8304 19.2759H9.8678C9.60187 19.2759 9.38647 19.0605 9.38647 18.7946V17.8145C8.70721 17.7796 8.04659 17.5425 7.49909 17.1316C7.26444 16.9553 7.25241 16.6039 7.46479 16.4012L8.17174 15.7267C8.33839 15.5679 8.58628 15.5607 8.78121 15.6828C9.01405 15.8284 9.27818 15.9066 9.55253 15.9066H11.2438C11.6349 15.9066 11.9537 15.5504 11.9537 15.113C11.9537 14.7551 11.7365 14.4398 11.4261 14.3471L8.71864 13.5349C7.60016 13.1992 6.81861 12.1258 6.81861 10.9243C6.81861 9.44906 7.96477 8.25057 9.38587 8.21266V7.2428C9.38587 6.97687 9.60126 6.76147 9.8672 6.76147H10.8298C11.0958 6.76147 11.3112 6.97687 11.3112 7.2428V8.22289C11.9904 8.25779 12.6511 8.49424 13.1986 8.90577C13.4332 9.08205 13.4452 9.43342 13.2328 9.63618L12.5259 10.3106C12.3592 10.4695 12.1114 10.4767 11.9164 10.3546C11.6836 10.2084 11.4195 10.1307 11.1451 10.1307H9.45386C9.06278 10.1307 8.74391 10.4869 8.74391 10.9243C8.74391 11.2823 8.96111 11.5976 9.27156 11.6902L11.979 12.5025C13.0975 12.8382 13.879 13.9115 13.879 15.113C13.879 16.5889 12.7329 17.7868 11.3118 17.8247ZM25.7515 16.8693C25.7515 17.1352 25.5361 17.3506 25.2701 17.3506H18.5316C18.2657 17.3506 18.0503 17.1352 18.0503 16.8693V15.9066C18.0503 15.6407 18.2657 15.4253 18.5316 15.4253H25.2701C25.5361 15.4253 25.7515 15.6407 25.7515 15.9066V16.8693ZM35.3779 16.8693C35.3779 17.1352 35.1625 17.3506 34.8966 17.3506H30.0834C29.8174 17.3506 29.6021 17.1352 29.6021 16.8693V15.9066C29.6021 15.6407 29.8174 15.4253 30.0834 15.4253H34.8966C35.1625 15.4253 35.3779 15.6407 35.3779 15.9066V16.8693ZM35.3779 11.0934C35.3779 11.3593 35.1625 11.5747 34.8966 11.5747H18.5316C18.2657 11.5747 18.0503 11.3593 18.0503 11.0934V10.1307C18.0503 9.86481 18.2657 9.64941 18.5316 9.64941H34.8966C35.1625 9.64941 35.3779 9.86481 35.3779 10.1307V11.0934Z" fill="#0071BC"/>
</svg>
