<svg width="33" height="22" viewBox="0 0 33 22" fill="none" xmlns="http://www.w3.org/2000/svg">
<path d="M31.2893 1.10295C29.3844 0.303973 27.4781 5.90811e-08 25.5727 5.90811e-08C19.5242 -0.000491083 13.4762 3.06134 7.42763 3.06134C5.91071 3.06134 4.39477 2.86884 2.87785 2.38759C2.70745 2.33357 2.53656 2.30804 2.36959 2.30804C1.52446 2.30804 0.785889 2.96214 0.785889 3.87013V19.4499C0.785889 20.0701 1.14093 20.6579 1.71107 20.8966C3.61593 21.696 5.52227 22 7.42763 22C13.4762 22 19.5247 18.9382 25.5732 18.9382C27.0901 18.9382 28.6061 19.1307 30.123 19.6119C30.2934 19.6659 30.4643 19.6915 30.6312 19.6915C31.4764 19.6915 32.215 19.0374 32.215 18.1294V2.55013C32.2145 1.92942 31.8594 1.3421 31.2893 1.10295ZM3.14303 4.92152C4.13107 5.16902 5.16232 5.29326 6.22303 5.36004C5.93428 6.8033 4.66535 7.89103 3.14303 7.89103V4.92152ZM3.14303 18.9171V16.5707C4.83084 16.5707 6.19651 17.9099 6.27165 19.5859C5.16526 19.497 4.13107 19.276 3.14303 18.9171ZM16.5002 15.7143C14.3301 15.7143 12.5716 13.6032 12.5716 11C12.5716 8.39634 14.3306 6.28571 16.5002 6.28571C18.6697 6.28571 20.4287 8.39634 20.4287 11C20.4287 13.6042 18.6692 15.7143 16.5002 15.7143ZM29.8573 17.0785C28.997 16.8629 28.1037 16.7421 27.1898 16.664C27.4781 15.3833 28.5403 14.411 29.8573 14.244V17.0785ZM29.8573 5.48379C28.3404 5.29179 27.1633 4.02531 27.1166 2.46125C28.0762 2.56781 28.9871 2.76719 29.8573 3.08295V5.48379Z" fill="#0071BC"/>
</svg>
