<svg width="34" height="20" viewBox="0 0 34 20" fill="none" xmlns="http://www.w3.org/2000/svg">
<path d="M18.7524 11.6571H17.9238V7.09994C17.9238 6.87105 17.7384 6.68566 17.5095 6.68566H16.8063C16.5608 6.68566 16.3211 6.75816 16.117 6.89436L15.3232 7.4236C15.1327 7.55039 15.0813 7.80759 15.2082 7.9979L15.668 8.68717C15.7948 8.87759 16.052 8.92908 16.2424 8.80213L16.2667 8.78608V11.6571H15.4381C15.2092 11.6571 15.0238 11.8425 15.0238 12.0713V12.8999C15.0238 13.1288 15.2092 13.3142 15.4381 13.3142H18.7524C18.9813 13.3142 19.1667 13.1288 19.1667 12.8999V12.0713C19.1667 11.8425 18.9813 11.6571 18.7524 11.6571ZM32.0095 0.0571289H2.18106C1.26601 0.0571289 0.523926 0.799213 0.523926 1.71426V18.2856C0.523926 19.2006 1.26601 19.9427 2.18106 19.9427H32.0095C32.9245 19.9427 33.6666 19.2006 33.6666 18.2856V1.71426C33.6666 0.799213 32.9245 0.0571289 32.0095 0.0571289ZM3.00963 17.457V14.1428C4.84024 14.1428 6.32389 15.6264 6.32389 17.457H3.00963ZM3.00963 5.85709V2.54283H6.32389C6.32389 4.37344 4.84024 5.85709 3.00963 5.85709ZM17.0953 15.7999C14.3496 15.7999 12.1239 13.2029 12.1239 9.99993C12.1239 6.79648 14.3496 4.19996 17.0953 4.19996C19.8409 4.19996 22.0667 6.79648 22.0667 9.99993C22.0667 13.2039 19.8399 15.7999 17.0953 15.7999ZM31.1809 17.457H27.8666C27.8666 15.6264 29.3503 14.1428 31.1809 14.1428V17.457ZM31.1809 5.85709C29.3503 5.85709 27.8666 4.37344 27.8666 2.54283H31.1809V5.85709Z" fill="#0071BC"/>
</svg>
