<svg width="19" height="37" viewBox="0 0 19 37" fill="none" xmlns="http://www.w3.org/2000/svg">
<path d="M14 0.5C11.525 0.5 9.5 2.525 9.5 5C9.5 7.475 11.525 9.5 14 9.5C16.475 9.5 18.5 7.475 18.5 5C18.5 2.525 16.475 0.5 14 0.5ZM7.25 11.75C3.515 11.75 0.5 14.765 0.5 18.5H5C5 17.24 5.99 16.25 7.25 16.25C8.51 16.25 9.5 17.24 9.5 18.5C9.5 19.76 5 25.88 5 29.75C5 33.62 8.015 36.5 11.75 36.5C15.485 36.5 18.5 33.485 18.5 29.75H14C14 31.01 13.01 32 11.75 32C10.49 32 9.5 31.01 9.5 29.75C9.5 28.13 14 21.47 14 18.5C14 14.855 10.985 11.75 7.25 11.75Z" fill="#0071BC"/>
</svg>
