<svg width="36" height="36" viewBox="0 0 36 36" fill="none" xmlns="http://www.w3.org/2000/svg">
<path d="M35.9669 16.0538C35.7674 10.3118 34.2584 5.69026 30.8549 3.16576C27.4514 0.641256 22.3349 -0.234744 15.9059 0.0712562C12.9869 0.212256 10.3529 0.591756 8.21539 1.44676C6.01039 2.33176 4.30639 3.57826 3.05989 5.31376C0.55339 8.80126 -0.22211 14.0663 0.0523899 20.1338C0.31339 25.8938 1.80589 30.4508 5.24989 32.9363C8.67589 35.4068 14.2439 36.1913 20.1134 35.9438C25.8104 35.7038 30.4379 34.1933 32.9159 30.7448C35.3894 27.3023 36.1784 22.2203 35.9669 16.0538V16.0538ZM9.90289 22.1558H9.16039V20.5613H9.90289C11.3219 20.5613 12.3569 19.4633 12.3569 18.1073C12.3569 16.7528 11.2589 15.6533 9.90289 15.6533H7.50439C7.41842 15.6537 7.34286 15.7103 7.31839 15.7928L7.31839 24.4958H5.77339V15.7928C5.77339 14.8358 6.54889 14.0603 7.50589 14.0603H9.90439C12.1394 14.0603 13.9919 15.8723 13.9919 18.1073C13.9919 20.3423 12.2624 22.1558 9.90289 22.1558ZM22.9559 22.1573H21.3899V17.9873C21.3584 16.8113 20.1104 15.6398 18.7814 15.6398C17.2874 15.6398 16.1879 16.9148 16.1879 18.1088C16.1879 19.7978 17.3789 20.5703 18.7814 20.5703H19.3334V22.1573H18.7814C16.4744 22.1558 14.6039 20.6798 14.6039 18.1088C14.6039 16.0118 16.4744 14.0603 18.7814 14.0603C20.8649 14.0603 22.8899 15.8078 22.9559 17.9873V22.1573H22.9559ZM24.9419 14.3258L26.9834 18.5078L26.0954 20.3123L23.1719 14.3273H24.9419V14.3258ZM26.8334 24.7823H25.0619L30.2009 14.3258H31.9724L26.8334 24.7823Z" fill="#0071BC"/>
</svg>
