<svg width="16" height="27" viewBox="0 0 16 27" fill="none" xmlns="http://www.w3.org/2000/svg">
<path d="M8.44705 11.85C5.04205 10.965 3.94705 10.05 3.94705 8.625C3.94705 6.99 5.46205 5.85 7.99705 5.85C10.6671 5.85 11.6571 7.125 11.7471 9H15.0621C14.9571 6.42 13.3821 4.05 10.2471 3.285V0H5.74705V3.24C2.83705 3.87 0.49705 5.76 0.49705 8.655C0.49705 12.12 3.36205 13.845 7.54705 14.85C11.297 15.75 12.047 17.07 12.047 18.465C12.047 19.5 11.312 21.15 7.99705 21.15C4.90705 21.15 3.69205 19.77 3.52705 18H0.227051C0.407051 21.285 2.86705 23.13 5.74705 23.745V27H10.2471V23.775C13.172 23.22 15.4971 21.525 15.4971 18.45C15.4971 14.19 11.852 12.735 8.44705 11.85Z" fill="#0071BC"/>
</svg>
