<svg width="41" height="32" viewBox="0 0 41 32" fill="none" xmlns="http://www.w3.org/2000/svg">
<path d="M14.5548 16.0001C18.9332 16.0001 22.4817 12.4516 22.4817 8.07321C22.4817 3.69486 18.9332 0.146362 14.5548 0.146362C10.1765 0.146362 6.628 3.69486 6.628 8.07321C6.628 12.4516 10.1765 16.0001 14.5548 16.0001ZM20.1036 17.9818H19.0694C17.6946 18.6134 16.165 18.9726 14.5548 18.9726C12.9447 18.9726 11.4213 18.6134 10.0403 17.9818H9.00605C4.41096 17.9818 0.682861 21.7099 0.682861 26.305V28.8812C0.682861 30.5223 2.01432 31.8537 3.65543 31.8537H25.4543C27.0954 31.8537 28.4268 30.5223 28.4268 28.8812V26.305C28.4268 21.7099 24.6987 17.9818 20.1036 17.9818ZM40.1065 10.0301L38.3849 8.28996C38.1 7.99889 37.6356 7.99889 37.3445 8.28376L30.8544 14.7243L28.0367 11.888C27.7518 11.5969 27.2873 11.5969 26.9963 11.8818L25.2561 13.6096C24.965 13.8945 24.965 14.3589 25.2499 14.65L30.3094 19.7467C30.5943 20.0378 31.0588 20.0378 31.3498 19.7529L40.1003 11.0705C40.3852 10.7795 40.3914 10.315 40.1065 10.0301Z" fill="#0071BC"/>
</svg>
