<svg width="41" height="32" viewBox="0 0 41 32" fill="none" xmlns="http://www.w3.org/2000/svg">
<path d="M14.5971 16C18.9443 16 22.4675 12.4768 22.4675 8.12964C22.4675 3.7825 18.9443 0.259277 14.5971 0.259277C10.25 0.259277 6.72675 3.7825 6.72675 8.12964C6.72675 12.4768 10.25 16 14.5971 16ZM20.1064 17.9676H19.0795C17.7145 18.5948 16.1958 18.9514 14.5971 18.9514C12.9984 18.9514 11.4859 18.5948 10.1147 17.9676H9.08786C4.52551 17.9676 0.823975 21.6691 0.823975 26.2315V28.7894C0.823975 30.4188 2.14595 31.7407 3.77536 31.7407H20.6782C20.5306 31.3226 20.4691 30.8799 20.5183 30.4311L20.9365 26.6865L21.0102 26.004L21.496 25.5182L26.2489 20.7653C24.7425 19.0621 22.5597 17.9676 20.1064 17.9676L20.1064 17.9676ZM22.8917 26.9017L22.4736 30.6524C22.406 31.2796 22.9348 31.8084 23.5558 31.7346L27.3004 31.3165L35.7795 22.8374L31.3708 18.4288L22.8917 26.9017L22.8917 26.9017ZM39.7454 16.7932L37.415 14.4628C36.8432 13.891 35.9086 13.891 35.3368 14.4628L33.0125 16.787L32.7604 17.0391L37.1752 21.4478L39.7454 18.8776C40.3172 18.2996 40.3172 17.3712 39.7454 16.7932V16.7932Z" fill="#0071BC"/>
</svg>
