<svg width="40" height="31" viewBox="0 0 40 31" fill="none" xmlns="http://www.w3.org/2000/svg">
<path d="M37.9555 16.4095L31.0172 13.6992C30.7703 13.6028 30.2583 13.4764 29.6801 13.6992L22.7419 16.4095C22.0974 16.6624 21.6758 17.2527 21.6758 17.9091C21.6758 24.6306 25.8135 29.2802 29.6801 30.7919C30.2583 31.0147 30.7642 30.8883 31.0172 30.7919C34.1069 29.5873 39.0215 25.4075 39.0215 17.9091C39.0215 17.2527 38.5999 16.6624 37.9555 16.4095ZM30.3487 27.9311V16.542L36.1004 18.7885C35.7632 24.0343 32.4325 26.9433 30.3487 27.9311V27.9311ZM13.9667 15.5C18.2248 15.5 21.6758 12.049 21.6758 7.79084C21.6758 3.53273 18.2248 0.081665 13.9667 0.081665C9.70853 0.081665 6.25747 3.53273 6.25747 7.79084C6.25747 12.049 9.70853 15.5 13.9667 15.5ZM19.7485 17.9091C19.7485 17.7586 19.7967 17.6201 19.8148 17.4755C19.6642 17.4695 19.5197 17.4273 19.3631 17.4273H18.3573C17.0202 18.0416 15.5326 18.391 13.9667 18.391C12.4007 18.391 10.9191 18.0416 9.57603 17.4273H8.57022C4.10131 17.4273 0.475586 21.053 0.475586 25.522V28.0274C0.475586 29.6235 1.77049 30.9184 3.36653 30.9184H24.5668C24.9763 30.9184 25.3678 30.828 25.7232 30.6775C22.4708 28.0937 19.7485 23.6489 19.7485 17.9091Z" fill="#0071BC"/>
</svg>
