<svg width="41" height="32" viewBox="0 0 41 32" fill="none" xmlns="http://www.w3.org/2000/svg">
<path d="M39.3263 13.0274H35.3628V9.06395C35.3628 8.51898 34.9169 8.07309 34.372 8.07309H32.3903C31.8453 8.07309 31.3994 8.51898 31.3994 9.06395V13.0274H27.436C26.891 13.0274 26.4451 13.4733 26.4451 14.0182V15.9999C26.4451 16.5449 26.891 16.9908 27.436 16.9908H31.3994V20.9542C31.3994 21.4992 31.8453 21.9451 32.3903 21.9451H34.372C34.9169 21.9451 35.3628 21.4992 35.3628 20.9542V16.9908H39.3263C39.8712 16.9908 40.3171 16.5449 40.3171 15.9999V14.0182C40.3171 13.4733 39.8712 13.0274 39.3263 13.0274ZM14.5548 15.9999C18.9332 15.9999 22.4817 12.4514 22.4817 8.07309C22.4817 3.69474 18.9332 0.14624 14.5548 0.14624C10.1765 0.14624 6.628 3.69474 6.628 8.07309C6.628 12.4514 10.1765 15.9999 14.5548 15.9999ZM20.1036 17.9817H19.0694C17.6946 18.6133 16.165 18.9725 14.5548 18.9725C12.9447 18.9725 11.4213 18.6133 10.0403 17.9817H9.00605C4.41096 17.9817 0.682861 21.7097 0.682861 26.3048V28.8811C0.682861 30.5222 2.01432 31.8536 3.65543 31.8536H25.4543C27.0954 31.8536 28.4268 30.5222 28.4268 28.8811V26.3048C28.4268 21.7097 24.6987 17.9817 20.1036 17.9817Z" fill="#0071BC"/>
</svg>
