<svg width="36" height="36" viewBox="0 0 36 36" fill="none" xmlns="http://www.w3.org/2000/svg">
<path d="M19.9896 14.5881C19.9896 15.8959 19.2983 16.5871 17.9905 16.5871H15.8899V12.6398H17.5336C19.5493 12.6398 19.9896 13.2566 19.9896 14.5881ZM35.3625 18C35.3625 27.6305 27.5555 35.4375 17.925 35.4375C8.29449 35.4375 0.487488 27.6305 0.487488 18C0.487488 8.36951 8.2945 0.5625 17.925 0.5625C27.5555 0.5625 35.3625 8.36951 35.3625 18ZM25.4773 25.3416C22.1917 19.3774 22.4329 19.8125 22.3342 19.6477C23.9818 18.5809 25.0022 16.6257 25.0022 14.4104C25.0022 10.5964 22.7874 8.13487 17.5844 8.13487H12.6156C11.6836 8.13487 10.9281 8.89038 10.9281 9.82237V26.1562C10.9281 27.0882 11.6836 27.8438 12.6156 27.8438H14.2024C15.1344 27.8438 15.8899 27.0882 15.8899 26.1562V21.1174H17.6868L20.7896 26.949C21.0826 27.4997 21.6556 27.8438 22.2794 27.8438H23.9995C25.2835 27.8437 26.0968 26.4663 25.4773 25.3416Z" fill="#0071BC"/>
</svg>
