<svg width="35" height="35" viewBox="0 0 35 35" fill="none" xmlns="http://www.w3.org/2000/svg">
<path d="M34.875 17.5C34.875 27.1305 27.068 34.9375 17.4375 34.9375C7.80701 34.9375 0 27.1305 0 17.5C0 7.86951 7.80701 0.0625 17.4375 0.0625C27.068 0.0625 34.875 7.86951 34.875 17.5ZM15.4205 26.733L28.358 13.7955C28.7973 13.3562 28.7973 12.6439 28.358 12.2046L26.7671 10.6136C26.3277 10.1742 25.6154 10.1742 25.176 10.6136L14.625 21.1645L9.69898 16.2385C9.25966 15.7992 8.54733 15.7992 8.10795 16.2385L6.51698 17.8295C6.07767 18.2688 6.07767 18.9811 6.51698 19.4204L13.8295 26.7329C14.2689 27.1723 14.9811 27.1723 15.4205 26.733V26.733Z" fill="#0071BC"/>
</svg>
