<svg width="32" height="29" viewBox="0 0 32 29" fill="none" xmlns="http://www.w3.org/2000/svg">
<path d="M27.7359 24.4316C27.9268 24.2407 28.1529 24.1453 28.4141 24.1453C28.6753 24.1453 28.9014 24.2407 29.0923 24.4316L31.0213 26.3606L29.6649 27.717L28.4141 26.4661L27.1632 27.717C26.9823 27.9079 26.7563 28.0034 26.485 28.0034C26.2138 28.0034 25.9877 27.9079 25.8068 27.717L24.556 26.4661L23.3051 27.717C23.1142 27.9079 22.8881 28.0034 22.6269 28.0034C22.3657 28.0034 22.1396 27.9079 21.9488 27.717L20.6979 26.4661L19.447 27.717C19.2561 27.9079 19.0301 28.0034 18.7688 28.0034C18.5076 28.0034 18.2816 27.9079 18.0907 27.717L16.8398 26.4661L15.5889 27.717C15.398 27.9079 15.172 28.0034 14.9107 28.0034C14.6495 28.0034 14.4235 27.9079 14.2326 27.717L12.9817 26.4661L11.7308 27.717C11.5399 27.9079 11.3139 28.0034 11.0526 28.0034C10.7914 28.0034 10.5654 27.9079 10.3745 27.717L9.1236 26.4661L7.87273 27.717C7.68184 27.9079 7.45578 28.0034 7.19456 28.0034C6.93334 28.0034 6.70728 27.9079 6.51639 27.717L5.26551 26.4661L4.01464 27.717C3.82375 27.9079 3.59769 28.0034 3.33647 28.0034C3.07524 28.0034 2.84919 27.9079 2.65829 27.717L0.729248 25.788L2.08562 24.4316L3.33649 25.6825L4.58737 24.4316C4.77826 24.2407 5.00432 24.1453 5.26554 24.1453C5.52676 24.1453 5.75282 24.2407 5.94371 24.4316L7.19458 25.6825L8.44546 24.4316C8.63635 24.2407 8.86241 24.1453 9.12363 24.1453C9.38485 24.1453 9.61091 24.2407 9.8018 24.4316L11.0527 25.6825L12.3036 24.4316C12.4944 24.2407 12.7205 24.1453 12.9817 24.1453C13.2429 24.1453 13.469 24.2407 13.6599 24.4316L14.9108 25.6825L16.1616 24.4316C16.3525 24.2407 16.5786 24.1453 16.8398 24.1453C17.101 24.1453 17.3271 24.2407 17.518 24.4316L18.7689 25.6825L20.0197 24.4316C20.2106 24.2407 20.4367 24.1453 20.6979 24.1453C20.9591 24.1453 21.1852 24.2407 21.3761 24.4316L22.627 25.6825L23.8778 24.4316C24.0687 24.2407 24.2948 24.1453 24.556 24.1453C24.8172 24.1453 25.0433 24.2407 25.2342 24.4316L26.485 25.6825L27.7359 24.4316ZM4.01474 23.8589C3.82385 24.0498 3.59779 24.1453 3.33657 24.1453C3.07535 24.1453 2.84929 24.0498 2.6584 23.8589L0.729355 21.9299L2.08572 20.5735L3.3366 21.8093L4.58747 20.5735C4.77837 20.3826 5.00442 20.2872 5.26565 20.2872C5.52687 20.2872 5.75292 20.3826 5.94382 20.5735L7.19469 21.8093L8.1592 20.8448V16.4291L4.99437 11.6969C4.82357 11.4357 4.78841 11.1518 4.88887 10.8454C4.98934 10.5389 5.19028 10.3355 5.49169 10.235L8.1592 9.36092V4.8548H10.0882V2.92575H13.9463V0.996704H17.8044V2.92575H21.6625V4.8548H23.5916V9.36092L26.2591 10.235C26.5605 10.3355 26.7614 10.5389 26.8619 10.8454C26.9624 11.1518 26.9272 11.4357 26.7564 11.6969L23.5916 16.4291V20.8448L23.8779 20.5735C24.0688 20.3826 24.2949 20.2872 24.5561 20.2872C24.8173 20.2872 25.0434 20.3826 25.2343 20.5735L26.4851 21.8093L27.736 20.5735C27.9269 20.3826 28.153 20.2872 28.4142 20.2872C28.6754 20.2872 28.9015 20.3826 29.0923 20.5735L31.0214 22.5026L29.665 23.8589L28.4141 22.608L27.1633 23.8589C26.9824 24.0498 26.7564 24.1453 26.4851 24.1453C26.2138 24.1453 25.9878 24.0498 25.8069 23.8589L24.5561 22.608L23.3052 23.8589C23.1143 24.0498 22.8882 24.1453 22.627 24.1453C22.3658 24.1453 22.1397 24.0498 21.9488 23.8589L20.698 22.608L19.4471 23.8589C19.2562 24.0498 19.0301 24.1453 18.7689 24.1453C18.5077 24.1453 18.2816 24.0498 18.0907 23.8589L16.8399 22.608L15.589 23.8589C15.3981 24.0498 15.172 24.1453 14.9108 24.1453C14.6496 24.1453 14.4235 24.0498 14.2327 23.8589L12.9818 22.608L11.7309 23.8589C11.54 24.0498 11.314 24.1453 11.0527 24.1453C10.7915 24.1453 10.5655 24.0498 10.3746 23.8589L9.12368 22.608L7.87281 23.8589C7.68192 24.0498 7.45586 24.1453 7.19464 24.1453C6.93342 24.1453 6.70736 24.0498 6.51647 23.8589L5.26559 22.608L4.01474 23.8589ZM10.0882 6.7839V8.71294L15.8753 6.7839L21.6625 8.71294V6.7839H19.7334V4.85485H12.0173V6.7839H10.0882Z" fill="#0071BC"/>
</svg>
